<?xml version="1.0" encoding="iso-8859-1"?>
<!-- Generator: Adobe Illustrator 19.0.0, SVG Export Plug-In . SVG Version: 6.00 Build 0)  -->
<svg version="1.1" id="Capa_1" xmlns="http://www.w3.org/2000/svg" xmlns:xlink="http://www.w3.org/1999/xlink" x="0px" y="0px"
	 viewBox="0 0 512 512" style="enable-background:new 0 0 512 512;" xml:space="preserve">
<g>
	<g>
		<path d="M502,478h-45.042l-4.523-41.487c-3.702-33.961-28.634-61.584-62.039-68.738l-51.548-11.039
			c-13.046-2.794-22.515-14.505-22.515-27.847v-5.726c0.756-0.406,1.508-0.816,2.251-1.237c0.383,0.045,0.771,0.073,1.166,0.073
			h64.194c31.521,0,57.164-25.644,57.164-57.165v-65.848C441.108,96.985,358.123,14,256.121,14h-0.115
			C154.004,14,71.019,96.985,71.019,198.987v65.848c0,31.521,25.644,57.165,57.164,57.165h65.269
			c0.636,0.359,1.279,0.709,1.923,1.057v5.847c0,13.335-9.464,25.046-22.502,27.844l-51.314,11.013
			c-33.377,7.164-58.293,34.776-62,68.711L55.021,478H10c-5.522,0-10,4.477-10,10s4.478,10,10,10h492c5.522,0,10-4.477,10-10
			S507.522,478,502,478z M128.183,301.997C107.69,302,91.019,285.328,91.019,264.835v-65.848C91.019,108.013,165.031,34,256.006,34
			h0.115c90.975,0,164.987,74.013,164.987,164.987v65.848c0,20.493-16.672,37.165-37.164,37.165h-39.556
			c11.932-12.169,21.4-26.845,28.513-43.049c0.13,0.002,0.262,0.011,0.393,0.011c15.11-0.001,28.813-10.405,32.353-25.744
			c3.48-15.088-3.971-30.192-17.144-36.983c0.64-7.042,0.964-14.132,0.964-21.218c0-5.523-4.478-10-10-10
			c-0.888,0-79.134,0-79.134,0v-38.771c0-4.493-2.996-8.434-7.325-9.636c-4.333-1.205-8.929,0.633-11.244,4.481l-26.419,43.925
			H132.436c-5.522,0-10,4.477-10,10c0,7.038,0.32,14.08,0.952,21.075c-13.354,6.718-20.943,21.927-17.437,37.126
			c3.54,15.339,17.24,25.744,32.353,25.743c0.231,0,0.463-0.015,0.694-0.02c7.113,16.207,16.583,30.886,28.517,43.057H128.183z
			 M381.023,236.436c1.578-5.438,2.936-10.978,4.066-16.597c1.334,2.654,1.787,5.769,1.069,8.883
			C385.411,231.956,383.523,234.629,381.023,236.436z M130.956,236.704c-2.69-1.805-4.734-4.584-5.518-7.981
			c-0.755-3.277-0.203-6.548,1.297-9.289C127.9,225.284,129.308,231.05,130.956,236.704z M142.665,185.018H261
			c3.509,0,6.761-1.839,8.569-4.846l10.764-17.896v12.742c0,5.523,4.478,10,10,10h78.904
			c-2.901,63.268-33.719,132.498-113.286,132.498S145.566,248.286,142.665,185.018z M215.297,331.49
			c12.258,3.895,25.791,6.025,40.654,6.025c14.787,0,28.257-2.107,40.465-5.964c0.998,17.923,11.992,33.766,27.905,41.247
			c-11.1,23.173-34.476,61.19-68.321,61.19c-33.842,0-57.196-37.924-68.37-61.293C203.433,365.157,214.331,349.35,215.297,331.49z
			 M75.14,478l4.3-39.355c2.77-25.35,21.383-45.978,46.316-51.329l42.367-9.093c14.138,30.866,42.509,75.765,87.877,75.765
			c45.404,0,73.796-45.052,87.858-75.726l42.35,9.069c24.954,5.344,43.578,25.979,46.344,51.349l4.287,39.32H75.14z"/>
	</g>
</g>
<g>
	<g>
		<path d="M301.939,218.696c-6.333,0-11.485,5.152-11.485,11.485s5.152,11.485,11.485,11.485s11.485-5.152,11.485-11.485
			S308.272,218.696,301.939,218.696z"/>
	</g>
</g>
<g>
	<g>
		<path d="M209.963,218.695c-6.333,0-11.485,5.152-11.485,11.485s5.152,11.485,11.485,11.485s11.485-5.152,11.485-11.485
			S216.296,218.695,209.963,218.695z"/>
	</g>
</g>
<g>
	<g>
		<path d="M154.993,108.637c-4.506-3.192-10.748-2.126-13.94,2.38l-0.201,0.287c-3.151,4.535-2.027,10.766,2.509,13.917
			c1.739,1.208,3.728,1.787,5.695,1.787c3.166,0,6.28-1.5,8.223-4.297l0.094-0.134C160.565,118.07,159.5,111.829,154.993,108.637z"
			/>
	</g>
</g>
<g>
	<g>
		<path d="M256.021,50.759c-34.372,0-67.444,12.556-93.124,35.354c-4.13,3.667-4.505,9.987-0.839,14.117
			c1.976,2.227,4.722,3.362,7.482,3.361c2.36,0,4.731-0.832,6.635-2.522c22.016-19.546,50.372-30.31,79.846-30.31h0.086
			c5.522,0,9.957-4.477,9.957-10C266.064,55.236,261.543,50.759,256.021,50.759z"/>
	</g>
</g>
<g>
	<g>
		<path d="M274.629,263.475c-3.302-4.427-9.569-5.337-13.995-2.035c-0.944,0.705-2.522,1.545-4.671,1.545
			c-2.128,0-3.696-0.828-4.638-1.523c-4.44-3.28-10.703-2.338-13.984,2.105c-3.28,4.443-2.338,10.704,2.105,13.984
			c4.814,3.554,10.525,5.433,16.517,5.433c6.044,0.002,11.795-1.905,16.632-5.514C277.021,274.167,277.932,267.902,274.629,263.475z
			"/>
	</g>
</g>
<g>
</g>
<g>
</g>
<g>
</g>
<g>
</g>
<g>
</g>
<g>
</g>
<g>
</g>
<g>
</g>
<g>
</g>
<g>
</g>
<g>
</g>
<g>
</g>
<g>
</g>
<g>
</g>
<g>
</g>
</svg>
