<?xml version="1.0"?><!DOCTYPE svg PUBLIC "-//W3C//DTD SVG 1.1//EN" "http://www.w3.org/Graphics/SVG/1.1/DTD/svg11.dtd"><svg xmlns="http://www.w3.org/2000/svg" xmlns:xlink="http://www.w3.org/1999/xlink"><symbol viewBox="0 0 46.02 46.02" id="arrow-down" xmlns="http://www.w3.org/2000/svg"><path d="M0 14.757c0-1.412.521-2.825 1.569-3.929a5.705 5.705 0 0 1 8.063-.204L23.05 23.382l13.325-12.745a5.703 5.703 0 0 1 7.884 8.242L27.006 35.384a5.707 5.707 0 0 1-7.872.013L1.773 18.893A5.699 5.699 0 0 1 0 14.757z"/></symbol><symbol viewBox="0 0 181.207 181.207" id="education" xmlns="http://www.w3.org/2000/svg"><path d="M176.805 62.738L92.701 34.067a6.495 6.495 0 0 0-4.195 0L4.402 62.738a6.501 6.501 0 0 0 .005 12.306l32.694 11.121v33.883c0 1.62.604 3.181 1.695 4.378 13.356 14.657 32.383 23.063 52.2 23.063 19.622 0 37.853-7.858 51.333-22.127a6.496 6.496 0 0 0 1.775-4.464V86.215l13.498-4.612v16.343a6.482 6.482 0 0 0-2.5 5.116v15.855a6.5 6.5 0 1 0 13 0v-15.855a6.48 6.48 0 0 0-2.5-5.116V78.87l11.205-3.828a6.5 6.5 0 0 0-.002-12.304zm-45.7 55.497c-10.799 10.501-24.944 16.253-40.108 16.253-15.348 0-30.114-6.18-40.896-17.036V90.587l38.597 13.128a6.496 6.496 0 0 0 4.195-.003l38.213-13.056v27.579zM90.786 90.694L26.664 68.883l63.939-21.797 63.979 21.811-63.796 21.797z"/></symbol><symbol viewBox="0 0 512 512" id="girl" xmlns="http://www.w3.org/2000/svg"><path d="M502 478h-45.042l-4.523-41.487a78.93 78.93 0 0 0-62.039-68.738l-51.548-11.039c-13.046-2.794-22.515-14.505-22.515-27.847v-5.726c.756-.406 1.508-.816 2.251-1.237.383.045.771.073 1.166.073h64.194c31.521 0 57.164-25.644 57.164-57.165v-65.848C441.108 96.985 358.123 14 256.121 14h-.115C154.004 14 71.019 96.985 71.019 198.987v65.848c0 31.521 25.644 57.165 57.164 57.165h65.269c.636.359 1.279.709 1.923 1.057v5.847c0 13.335-9.464 25.046-22.502 27.844l-51.314 11.013a78.937 78.937 0 0 0-62 68.711L55.021 478H10c-5.522 0-10 4.477-10 10s4.478 10 10 10h492c5.522 0 10-4.477 10-10s-4.478-10-10-10zM128.183 301.997c-20.493.003-37.164-16.669-37.164-37.162v-65.848C91.019 108.013 165.031 34 256.006 34h.115c90.975 0 164.987 74.013 164.987 164.987v65.848c0 20.493-16.672 37.165-37.164 37.165h-39.556c11.932-12.169 21.4-26.845 28.513-43.049.13.002.262.011.393.011 15.11-.001 28.813-10.405 32.353-25.744 3.48-15.088-3.971-30.192-17.144-36.983.64-7.042.964-14.132.964-21.218 0-5.523-4.478-10-10-10h-79.134v-38.771a10 10 0 0 0-18.569-5.155l-26.419 43.925H132.436c-5.522 0-10 4.477-10 10 0 7.038.32 14.08.952 21.075-13.354 6.718-20.943 21.927-17.437 37.126 3.54 15.339 17.24 25.744 32.353 25.743.231 0 .463-.015.694-.02 7.113 16.207 16.583 30.886 28.517 43.057h-39.332zm252.84-65.561a203.623 203.623 0 0 0 4.066-16.597 13.142 13.142 0 0 1 1.069 8.883 13.14 13.14 0 0 1-5.135 7.714zm-250.067.268c-2.69-1.805-4.734-4.584-5.518-7.981-.755-3.277-.203-6.548 1.297-9.289a204.383 204.383 0 0 0 4.221 17.27zm11.709-51.686H261a9.998 9.998 0 0 0 8.569-4.846l10.764-17.896v12.742c0 5.523 4.478 10 10 10h78.904c-2.901 63.268-33.719 132.498-113.286 132.498s-110.385-69.23-113.286-132.498zm72.632 146.472c12.258 3.895 25.791 6.025 40.654 6.025 14.787 0 28.257-2.107 40.465-5.964.998 17.923 11.992 33.766 27.905 41.247-11.1 23.173-34.476 61.19-68.321 61.19-33.842 0-57.196-37.924-68.37-61.293 15.803-7.538 26.701-23.345 27.667-41.205zM75.14 478l4.3-39.355a58.97 58.97 0 0 1 46.316-51.329l42.367-9.093c14.138 30.866 42.509 75.765 87.877 75.765 45.404 0 73.796-45.052 87.858-75.726l42.35 9.069a58.963 58.963 0 0 1 46.344 51.349l4.287 39.32H75.14z"/><path d="M301.939 218.696c-6.333 0-11.485 5.152-11.485 11.485s5.152 11.485 11.485 11.485 11.485-5.152 11.485-11.485-5.152-11.485-11.485-11.485zM209.963 218.695c-6.333 0-11.485 5.152-11.485 11.485s5.152 11.485 11.485 11.485 11.485-5.152 11.485-11.485-5.152-11.485-11.485-11.485zM154.993 108.637c-4.506-3.192-10.748-2.126-13.94 2.38l-.201.287c-3.151 4.535-2.027 10.766 2.509 13.917a9.953 9.953 0 0 0 5.695 1.787 9.99 9.99 0 0 0 8.223-4.297l.094-.134c3.192-4.507 2.127-10.748-2.38-13.94zM256.021 50.759c-34.372 0-67.444 12.556-93.124 35.354-4.13 3.667-4.505 9.987-.839 14.117a9.967 9.967 0 0 0 7.482 3.361c2.36 0 4.731-.832 6.635-2.522 22.016-19.546 50.372-30.31 79.846-30.31h.086c5.522 0 9.957-4.477 9.957-10s-4.521-10-10.043-10zM274.629 263.475c-3.302-4.427-9.569-5.337-13.995-2.035a7.753 7.753 0 0 1-4.671 1.545 7.76 7.76 0 0 1-4.638-1.523c-4.44-3.28-10.703-2.338-13.984 2.105-3.28 4.443-2.338 10.704 2.105 13.984a27.618 27.618 0 0 0 16.517 5.433 27.594 27.594 0 0 0 16.632-5.514c4.426-3.303 5.337-9.568 2.034-13.995z"/></symbol><symbol viewBox="0 0 612.008 612.008" id="house" xmlns="http://www.w3.org/2000/svg"><path d="M609.208 298.554L313.306 3.315a10.201 10.201 0 0 0-14.433 0L2.961 298.554c-3.988 3.988-3.907 10.354 0 14.433 1.999 2.051 4.61 3.111 7.201 3.132v.021h71.441v285.355a10.09 10.09 0 0 0 2.988 7.17c1.846 1.847 4.396 3.02 7.211 3.02h142.8c5.63 0 10.2-4.59 10.2-10.189V397.719h122.401v203.776c0 5.6 4.569 10.189 10.2 10.189h142.8c5.63 0 10.2-4.59 10.2-10.189V316.14h71.899c2.673.051 5.191-1 6.905-3.152 3.469-4.447 3.99-10.446.001-14.434zm-89.004-3.468v.724c-1.408 0-2.754.286-3.968.785-3.662 1.571-6.232 5.182-6.232 9.405v285.294h-122.4V387.539c0-5.64-4.569-10.199-10.199-10.199H234.603c-5.63 0-10.2 4.56-10.2 10.199v203.756h-122.4V306.001c0-4.213-2.57-7.834-6.232-9.395-1.213-.5-2.56-.785-3.968-.785v-.408l-56.834.031L306.084 24.898l270.719 270.137-56.599.051z"/></symbol><symbol viewBox="0 0 551.391 551.391" id="leaf" xmlns="http://www.w3.org/2000/svg"><path d="M551.391 413.695s-44.014-45.366-61.759-94.43C358.213-44.068 102.114 109.165 101.27 114.164c0 0 35.48 20.374 55.717 47.896C285.376 336.704 433.158 372.2 433.158 372.2s-177.829-39.19-288.479-194.562C120.253 143.322 60.111 120.086 0 110.25c0 0 9.828 24.325 12.49 34.785 26.618 4.079 52.106 12.607 74.875 27.025-25.854 217.151 149.123 288.272 210.136 297.563 144.1 21.929 253.89-55.928 253.89-55.928z"/></symbol><symbol viewBox="0 0 475.084 475.085" id="lightning" xmlns="http://www.w3.org/2000/svg"><path d="M362.296 125.055c-2.851-2.853-6.092-4.28-9.706-4.287-.77 0-1.902.193-3.432.572L236.1 149.319 284.917 17.13c.951-1.903 1.431-3.614 1.431-5.139 0-3.234-1.242-6.04-3.713-8.42C280.161 1.188 277.115 0 273.501 0h-93.645c-3.045 0-5.708.855-7.994 2.568-2.284 1.715-3.809 3.905-4.568 6.567l-57.386 235.546c-.953 4.564.284 8.277 3.711 11.135 2.473 2.099 5.421 3.139 8.848 3.139 1.524 0 2.666-.089 3.427-.281l115.914-28.838-56.244 230.691c-.76 3.045-.333 5.899 1.287 8.562 1.619 2.669 4.047 4.476 7.281 5.427 1.903.377 3.239.568 3.999.568 5.52 0 9.514-2.375 11.991-7.136l154.172-330.332c2.095-4.567 1.434-8.756-1.998-12.561z"/></symbol><symbol viewBox="0 0 31.797 31.797" id="mailbox" xmlns="http://www.w3.org/2000/svg"><path d="M0 5.713v20.371h31.797V5.713H0zm29.201 1.379L15.899 18.178 2.595 7.092h26.606zM1.38 24.704V7.875l14.519 12.098L30.417 7.875v16.83L1.38 24.704z"/></symbol><symbol viewBox="0 0 438.536 438.536" id="marker" xmlns="http://www.w3.org/2000/svg"><path d="M322.621 42.825C294.073 14.272 259.619 0 219.268 0c-40.353 0-74.803 14.275-103.353 42.825-28.549 28.549-42.825 63-42.825 103.353 0 20.749 3.14 37.782 9.419 51.106l104.21 220.986c2.856 6.276 7.283 11.225 13.278 14.838 5.996 3.617 12.419 5.428 19.273 5.428 6.852 0 13.278-1.811 19.273-5.428 5.996-3.613 10.513-8.562 13.559-14.838L356.02 197.284c6.282-13.324 9.424-30.358 9.424-51.106.005-40.353-14.268-74.8-42.823-103.353zm-51.679 155.03c-14.273 14.272-31.497 21.411-51.674 21.411s-37.401-7.139-51.678-21.411c-14.275-14.277-21.414-31.501-21.414-51.678 0-20.175 7.139-37.402 21.414-51.675 14.277-14.275 31.504-21.414 51.678-21.414 20.177 0 37.401 7.139 51.674 21.414 14.274 14.272 21.413 31.5 21.413 51.675 0 20.175-7.138 37.398-21.413 51.678z"/></symbol><symbol viewBox="0 0 511.998 511.998" id="music" xmlns="http://www.w3.org/2000/svg"><path d="M454.837 7.765a43.244 43.244 0 0 0-39.661-5.103L197.309 82.92c-16.915 6.231-28.28 22.53-28.28 40.555v245.242c-12.431-8.824-28.382-12.304-45.873-9.805-19.734 2.819-39.255 13.025-54.966 28.737-15.712 15.712-25.918 35.233-28.737 54.966-2.997 20.982 2.579 39.767 15.703 52.89 10.805 10.805 25.445 16.492 41.993 16.492 3.55 0 7.191-.262 10.896-.791 19.734-2.819 39.255-13.025 54.967-28.737 15.711-15.712 25.918-35.233 28.737-54.967.446-3.128.68-6.2.75-9.221.008-.182.027-212.657.027-212.657l257.317-94.791v154.435c-12.43-8.822-28.381-12.303-45.873-9.805-19.734 2.818-39.255 13.025-54.967 28.737s-25.918 35.233-28.737 54.967c-2.998 20.982 2.579 39.767 15.702 52.89 10.805 10.805 25.445 16.494 41.994 16.494 3.55 0 7.191-.262 10.896-.792 19.734-2.819 39.255-13.025 54.967-28.737 15.711-15.712 25.918-35.233 28.737-54.967.445-3.125.775-280.839.775-280.839a43.25 43.25 0 0 0-18.5-35.451zM169.029 416.976a52.91 52.91 0 0 1-.54 7.205c-2.105 14.735-9.95 29.536-22.092 41.677-12.141 12.141-26.942 19.987-41.676 22.091-13.48 1.925-25.186-1.29-32.953-9.056-7.766-7.766-10.983-19.47-9.056-32.954 2.105-14.734 9.95-29.535 22.091-41.675 12.141-12.141 26.942-19.987 41.676-22.093a52.684 52.684 0 0 1 7.453-.545c10.32 0 19.205 3.307 25.5 9.603 6.27 6.27 9.571 15.107 9.598 25.375v.372zM449.842 85.798L192.524 180.59v-57.113c0-8.227 5.187-15.664 12.907-18.508l217.867-80.26c6.137-2.26 12.734-1.413 18.101 2.33 5.365 3.74 8.443 9.639 8.443 16.179v42.58zm-.001 227.712a53.048 53.048 0 0 1-.54 7.225c-2.105 14.734-9.951 29.533-22.091 41.675-12.141 12.142-26.942 19.987-41.676 22.093-13.485 1.927-25.187-1.291-32.953-9.057-7.766-7.766-10.984-19.469-9.057-32.953 2.105-14.734 9.95-29.535 22.093-41.676 12.141-12.141 26.941-19.986 41.675-22.091a52.695 52.695 0 0 1 7.453-.545c10.32 0 19.205 3.306 25.5 9.602 6.274 6.274 9.575 15.119 9.598 25.396v.331z"/></symbol><symbol viewBox="0 0 250.313 250.313" id="search" xmlns="http://www.w3.org/2000/svg"><path d="M244.186 214.604l-54.379-54.378c-.289-.289-.628-.491-.93-.76 10.7-16.231 16.945-35.66 16.945-56.554C205.822 46.075 159.747 0 102.911 0S0 46.075 0 102.911c0 56.835 46.074 102.911 102.91 102.911 20.895 0 40.323-6.245 56.554-16.945.269.301.47.64.759.929l54.38 54.38c8.169 8.168 21.413 8.168 29.583 0 8.168-8.169 8.168-21.413 0-29.582zm-141.275-44.458c-37.134 0-67.236-30.102-67.236-67.235 0-37.134 30.103-67.236 67.236-67.236 37.132 0 67.235 30.103 67.235 67.236s-30.103 67.235-67.235 67.235z"/></symbol><symbol viewBox="-70 0 600 400" id="star" xmlns="http://www.w3.org/2000/svg"><path d="M213.333 10.441l65.916 133.576 147.418 21.419L320 269.41l25.173 146.816-131.84-69.316-131.848 69.316 25.182-146.816L0 165.436l147.409-21.419z"/></symbol><symbol viewBox="0 0 512.001 512.001" id="train" xmlns="http://www.w3.org/2000/svg"><path d="M376.001 332h-30c-8.284 0-15 6.716-15 15s6.716 15 15 15h30c8.284 0 15-6.716 15-15s-6.716-15-15-15zM166.001 332h-30c-8.284 0-15 6.716-15 15s6.716 15 15 15h30c8.284 0 15-6.716 15-15s-6.716-15-15-15z"/><path d="M475.79 485.634l-77.727-66.951c30.622-9.442 52.938-38.004 52.938-71.683V135c0-41.355-33.645-75-75-75h-20.73l-17.562-35.124C330.038 9.532 314.616 0 297.46 0h-82.918c-17.156 0-32.579 9.532-40.249 24.875L156.73 60H136c-41.355 0-75 33.645-75 75v212c0 33.679 22.316 62.24 52.938 71.684l-77.727 66.951c-6.277 5.407-6.982 14.878-1.576 21.155 5.409 6.279 14.88 6.981 21.154 1.576L86.399 482h339.204l30.609 26.365c6.276 5.407 15.747 4.701 21.154-1.576 5.406-6.277 4.701-15.748-1.576-21.155zM201.126 38.291A14.917 14.917 0 0 1 214.542 30h82.918a14.918 14.918 0 0 1 13.416 8.292L321.731 60H190.272l10.854-21.709zM136.001 89.9h29.928l.06.003.099-.003h209.913c19.555 0 36.228 12.642 42.42 30.1H93.581c6.192-17.458 22.865-30.1 42.42-30.1zm277.989 60.05l-36.83 93.763C370.286 260.896 353.887 272 335.379 272H176.622c-18.508 0-34.907-11.104-41.747-28.203L98.013 149.95H413.99zM91.001 347V214.178l15.985 40.675C118.443 283.494 145.776 302 176.622 302h158.757c30.847 0 58.18-18.506 69.669-47.23l15.953-40.593V347c0 24.813-20.187 45-45 45h-75v-15c0-24.813-20.188-45-45.001-45-24.812 0-44.999 20.187-44.999 45v15h-75c-24.813 0-45-20.187-45-45zm180 30v15h-30v-15c0-8.271 6.729-15 14.999-15 8.271 0 15.001 6.729 15.001 15zm-149.774 75l34.829-30h199.89l34.829 30H121.227z"/></symbol><symbol viewBox="0 0 488 488" id="user" xmlns="http://www.w3.org/2000/svg"><path d="M366.25 255.6c-6.7-7.3-18.1-7.8-25.4-1.1-7.3 6.7-7.8 18.1-1.1 25.4 22.1 24.1 34.3 55.4 34.3 88.1v77.3c0 3.6-3 6.6-6.6 6.6h-247.1c-3.6 0-6.6-3-6.6-6.6V368c0-71.8 58.4-130.1 130.1-130.1 65.6 0 119-53.4 119-119S309.55 0 243.95 0s-119 53.4-119 119c0 19.6 4.9 39.1 14.1 56.3 4.7 8.8 15.6 12 24.4 7.3 8.8-4.7 12-15.6 7.3-24.4-6.4-12-9.8-25.5-9.8-39.2 0-45.8 37.2-83 83-83s83 37.2 83 83-37.2 83-83 83c-91.6 0-166.1 74.5-166.1 166.1v77.3c0 23.5 19.1 42.6 42.6 42.6h247.1c23.5 0 42.6-19.1 42.6-42.6v-77.3c0-41.8-15.6-81.7-43.9-112.5z"/></symbol></svg>