<?xml version="1.0" encoding="iso-8859-1"?><!DOCTYPE svg PUBLIC "-//W3C//DTD SVG 1.1//EN" "http://www.w3.org/Graphics/SVG/1.1/DTD/svg11.dtd"><svg xmlns="http://www.w3.org/2000/svg" xmlns:xlink="http://www.w3.org/1999/xlink"><symbol viewBox="0 0 96.124 96.123" id="fb" xmlns="http://www.w3.org/2000/svg"><path d="M72.089.02L59.624 0C45.62 0 36.57 9.285 36.57 23.656v10.907H24.037a1.96 1.96 0 0 0-1.96 1.961v15.803a1.96 1.96 0 0 0 1.96 1.96H36.57v39.876a1.96 1.96 0 0 0 1.96 1.96h16.352a1.96 1.96 0 0 0 1.96-1.96V54.287h14.654a1.96 1.96 0 0 0 1.96-1.96l.006-15.803a1.963 1.963 0 0 0-1.961-1.961H56.842v-9.246c0-4.444 1.059-6.7 6.848-6.7l8.397-.003a1.96 1.96 0 0 0 1.959-1.96V1.98A1.96 1.96 0 0 0 72.089.02z"/></symbol><symbol viewBox="0 0 486.392 486.392" id="gp" xmlns="http://www.w3.org/2000/svg"><path d="M395.193 0H91.198C40.826 0 0 40.826 0 91.198v303.995c0 50.372 40.826 91.198 91.198 91.198h303.995c50.372 0 91.198-40.827 91.198-91.198V91.198C486.392 40.826 445.565 0 395.193 0zM175.344 406.836c-53.837 0-99.254-21.918-99.254-56.938 0-35.537 41.434-69.858 95.272-69.828l16.811-.152c-7.357-7.144-13.193-15.929-13.193-26.782 0-6.445 2.067-12.616 4.925-18.118l-8.968.304c-44.231 0-73.84-31.463-73.84-70.466 0-38.151 40.887-71.074 84.359-71.074h96.974l-21.766 15.686H225.93c20.398 7.843 31.251 31.615 31.251 55.996 0 20.459-11.339 38.091-27.36 50.615-15.656 12.251-18.604 17.358-18.604 27.755 0 8.877 16.781 23.955 25.536 30.187 25.627 18.118 33.865 34.929 33.865 62.988-.002 35.02-33.897 69.827-95.274 69.827zm250.249-193.462h-60.799v60.708h-30.369v-60.708h-60.829v-30.977h60.829v-60.799h30.369v60.799h60.799v30.977z"/><path d="M222.342 167.349c-4.317-32.771-28.059-59.097-53.017-59.857-24.958-.73-41.708 24.35-37.391 57.181 4.317 32.801 28.059 60.009 53.047 60.738 24.927.761 41.708-25.23 37.361-58.062zM205.774 293.021c-7.357-2.371-15.473-3.8-24.137-3.891-37.209-.395-70.527 22.678-70.527 50.433 0 28.332 26.873 51.861 64.082 51.861 52.317 0 70.527-22.131 70.527-50.402 0-3.405-.456-6.749-1.186-10.001-4.073-16.052-18.574-23.986-38.759-38z"/></symbol><symbol viewBox="0 0 612 612" id="tw" xmlns="http://www.w3.org/2000/svg"><path d="M612 116.258a250.714 250.714 0 0 1-72.088 19.772c25.929-15.527 45.777-40.155 55.184-69.411-24.322 14.379-51.169 24.82-79.775 30.48-22.907-24.437-55.49-39.658-91.63-39.658-69.334 0-125.551 56.217-125.551 125.513 0 9.828 1.109 19.427 3.251 28.606-104.326-5.24-196.835-55.223-258.75-131.174-10.823 18.51-16.98 40.078-16.98 63.101 0 43.559 22.181 81.993 55.835 104.479a125.556 125.556 0 0 1-56.867-15.756v1.568c0 60.806 43.291 111.554 100.693 123.104-10.517 2.83-21.607 4.398-33.08 4.398-8.107 0-15.947-.803-23.634-2.333 15.985 49.907 62.336 86.199 117.253 87.194-42.947 33.654-97.099 53.655-155.916 53.655-10.134 0-20.116-.612-29.944-1.721 55.567 35.681 121.536 56.485 192.438 56.485 230.948 0 357.188-191.291 357.188-357.188l-.421-16.253c24.666-17.593 46.005-39.697 62.794-64.861z" /></symbol><symbol viewBox="0 0 90 90" id="yt" xmlns="http://www.w3.org/2000/svg"><path d="M70.939 65.832H66l.023-2.869a2.329 2.329 0 0 1 2.326-2.318h.315a2.332 2.332 0 0 1 2.332 2.318l-.057 2.869zm-18.526-6.148c-1.253 0-2.278.842-2.278 1.873V75.51c0 1.029 1.025 1.869 2.278 1.869 1.258 0 2.284-.84 2.284-1.869V61.557c0-1.032-1.026-1.873-2.284-1.873zM82.5 51.879v26.544C82.5 84.79 76.979 90 70.23 90H19.771C13.02 90 7.5 84.79 7.5 78.423V51.879c0-6.367 5.52-11.578 12.271-11.578H70.23c6.749 0 12.27 5.211 12.27 11.578zM23.137 81.305l-.004-27.961 6.255.002v-4.143l-16.674-.025v4.073l5.205.015v28.039h5.218zm18.75-23.796h-5.215V72.44c0 2.16.131 3.24-.008 3.621-.424 1.158-2.33 2.388-3.073.125-.126-.396-.015-1.591-.017-3.643l-.021-15.034h-5.186l.016 14.798c.004 2.268-.051 3.959.018 4.729.127 1.357.082 2.939 1.341 3.843 2.346 1.69 6.843-.252 7.968-2.668l-.01 3.083 4.188.005-.001-23.79zM58.57 74.607l-.011-12.427c-.004-4.736-3.547-7.572-8.356-3.74l.021-9.239-5.209.008-.025 31.89 4.284-.062.39-1.986c5.473 5.021 8.914 1.58 8.906-4.444zm16.321-1.647l-3.91.021c-.002.155-.008.334-.01.529v2.182c0 1.168-.965 2.119-2.137 2.119h-.766c-1.174 0-2.139-.951-2.139-2.119v-5.739h8.954v-3.37c0-2.463-.063-4.925-.267-6.333-.641-4.454-6.893-5.161-10.051-2.881a5.887 5.887 0 0 0-2.188 2.945c-.444 1.281-.665 3.031-.665 5.254v7.41c.002 12.318 14.964 10.577 13.179-.018zM54.833 32.732a3.55 3.55 0 0 0 1.254 1.584c.56.394 1.276.592 2.134.592.752 0 1.418-.203 1.998-.622.578-.417 1.065-1.04 1.463-1.871l-.099 2.046h5.813V9.74H62.82v19.24a1.907 1.907 0 0 1-3.811 0V9.74h-4.776v16.674c0 2.124.039 3.54.102 4.258.065.713.229 1.397.498 2.06zM37.217 18.77c0-2.373.198-4.226.591-5.562.396-1.331 1.107-2.401 2.137-3.208 1.027-.811 2.342-1.217 3.941-1.217 1.345 0 2.497.264 3.459.781.967.52 1.713 1.195 2.23 2.028a8 8 0 0 1 1.076 2.574c.195.891.291 2.235.291 4.048v6.252c0 2.293-.092 3.98-.271 5.051a8.006 8.006 0 0 1-1.146 3.004c-.58.924-1.329 1.615-2.237 2.056-.918.445-1.968.663-3.154.663-1.325 0-2.441-.183-3.361-.565-.923-.38-1.636-.953-2.144-1.714-.513-.762-.874-1.69-1.092-2.772-.219-1.081-.323-2.707-.323-4.874l.003-6.545zm4.553 9.82c0 1.4 1.042 2.543 2.311 2.543 1.27 0 2.308-1.143 2.308-2.543V15.43c0-1.398-1.038-2.541-2.308-2.541-1.269 0-2.311 1.143-2.311 2.541v13.16zm-16.088 6.645h5.484l.006-18.96L37.652.033h-5.998l-3.445 12.064L24.715 0h-5.936l6.894 16.284.009 18.951z"/></symbol></svg>
