<svg xmlns="http://www.w3.org/2000/svg" viewBox="80 150 250 75">
  <path fill="#D1D3D4" d="M153.5 182.8c1.4-3.1 2.1-6.6 2.1-10.2 0-14.1-11.4-21.6-25.5-21.6s-25.5 7.5-25.5 21.6c0 3.6.8 7.1 2.1 10.2l.1.3.9 1.8 22.3 44.9 22.4-44.8.9-1.8.2-.4z"/>
  <path fill="#E6E7E8" d="M130.1 229.7l22.4-44.8.9-1.8.1-.3c1.4-3.1 2.1-6.6 2.1-10.2 0-14.1-11.4-21.6-25.5-21.6"/>
  <path fill="#1BAF5D" d="M130.1 172.9c0 11.2.7 20.3 11.9 20.3 11.2 0 20.3-9.1 20.3-20.3 0-11.2-9.1-20.3-20.3-20.3-4.2 0-8.1 1.3-11.3 3.5l1.8 4.1s1.9 2.3 5.2-.5l.3 2-7.9 11.2"/>
  <path fill="#1BAF5D" d="M158.2 167l3.7 2 7.4 20s-21.4 5.4-27.3 4.2c-6-1.2-5.9-6.2-5.9-6.2s24.7 9.1 22.1-20"/>
  <path fill="#8DC63F" d="M130.1 172.9c0 11.2-.7 20.3-11.9 20.3-11.2 0-20.3-9.1-20.3-20.3 0-11.2 9.1-20.3 20.3-20.3 4.2 0 8.1 1.3 11.3 3.5l-1.8 4.1s-1.9 2.3-5.2-.5l-.3 2 7.9 11.2"/>
  <path fill="#8DC63F" d="M130.1 172.9c0 6.6-5.3 11.9-11.9 11.9-6.6 0-11.9-5.3-11.9-11.9 0-6.6 5.3-11.9 11.9-11.9 6.6 0 11.9 5.3 11.9 11.9"/>
  <path fill="#FFF" d="M118.2 163.1c-5.4 0-9.8 4.4-9.8 9.8s4.4 9.8 9.8 9.8 9.8-4.4 9.8-9.8-4.4-9.8-9.8-9.8m0 23.8c-7.7 0-14-6.3-14-14s6.3-14 14-14 14 6.3 14 14-6.3 14-14 14"/>
  <path fill="#1BAF5D" d="M153.9 172.9c0 6.6-5.3 11.9-11.9 11.9-6.6 0-11.9-5.3-11.9-11.9 0-6.6 5.3-11.9 11.9-11.9 6.6 0 11.9 5.3 11.9 11.9"/>
  <path fill="#FFF" d="M142 163.1c-5.4 0-9.8 4.4-9.8 9.8s4.4 9.8 9.8 9.8 9.8-4.4 9.8-9.8-4.4-9.8-9.8-9.8m0 23.8c-7.7 0-14-6.3-14-14s6.3-14 14-14 14 6.3 14 14-6.3 14-14 14"/>
  <path d="M124.1 172.9c0 3.2-2.6 5.9-5.9 5.9-3.2 0-5.9-2.6-5.9-5.9 0-3.2 2.6-5.9 5.9-5.9 3.2 0 5.9 2.6 5.9 5.9m23.6 0c0 3.2-2.6 5.9-5.9 5.9-3.2 0-5.9-2.6-5.9-5.9 0-3.2 2.6-5.9 5.9-5.9 3.3 0 5.9 2.6 5.9 5.9"/>
  <path fill="#8DC63F" d="M102 167l-3.7 2-7.4 20s21.4 5.4 27.3 4.2c6-1.2 5.9-6.2 5.9-6.2s-24.7 9.1-22.1-20"/>
  <path fill="#4C5B6A" stroke="#4C5B6A" stroke-width="2" stroke-miterlimit="10" d="M182.1 170.5h21.1L187 195.9h15.7v3.3h-22.1l16.2-25.4h-14.7v-3.3zm38.8-.7c4.4 0 8.1 1.6 11 4.8 2.6 2.9 4 6.4 4 10.4s-1.4 7.5-4.2 10.5c-2.8 3-6.4 4.5-10.8 4.5s-8-1.5-10.8-4.5c-2.8-3-4.2-6.5-4.2-10.5s1.3-7.4 4-10.3c2.9-3.3 6.6-4.9 11-4.9zm0 3.6c-3.1 0-5.7 1.1-7.9 3.4s-3.3 5-3.3 8.2c0 2.1.5 4 1.5 5.8 1 1.8 2.4 3.2 4.1 4.2 1.7 1 3.6 1.5 5.6 1.5 2 0 3.9-.5 5.6-1.5 1.7-1 3.1-2.4 4.1-4.2 1-1.8 1.5-3.7 1.5-5.8 0-3.2-1.1-6-3.3-8.2-2.2-2.3-4.8-3.4-7.9-3.4zm18.7-2.9h3.9l9.9 22.1 9.6-22.1h3.9l-17.1 39.2h-3.9l5.5-12.7-11.8-26.5zm35.3-10.6h3.7v10.7h5.9v3.2h-5.9v25.5h-3.7v-25.5h-5v-3.2h5v-10.7zm43.6 10.6v28.7h-3.6v-4.9c-1.5 1.9-3.3 3.3-5.2 4.2s-4 1.4-6.3 1.4c-4.1 0-7.5-1.5-10.4-4.4-2.9-2.9-4.3-6.5-4.3-10.7 0-4.1 1.5-7.7 4.4-10.6 2.9-2.9 6.4-4.4 10.5-4.4 2.4 0 4.5.5 6.4 1.5 1.9 1 3.6 2.5 5 4.5v-5.3h3.5zm-14.7 2.8c-2.1 0-4 .5-5.7 1.5s-3.1 2.4-4.1 4.3c-1 1.8-1.5 3.8-1.5 5.8s.5 4 1.6 5.8 2.4 3.3 4.2 4.3c1.7 1 3.6 1.5 5.6 1.5 2 0 3.9-.5 5.7-1.5 1.8-1 3.2-2.4 4.2-4.1 1-1.7 1.5-3.7 1.5-5.9 0-3.3-1.1-6.1-3.3-8.3-2.3-2.3-5-3.4-8.2-3.4z"/>
  <path fill="none" d="M300 186c-.4-.9.2-1.9 1.1-2.3.8-.4 1.8-.4 2.8-.4.5 0 1 0 1.4.3.4.3.6.9.3 1.3"/>
  <path fill="none" stroke="#4C5B6A" stroke-width="2" stroke-miterlimit="10" d="M210.3 210.2l21.5-49.7"/>
</svg>
